<?xml version="1.0" encoding="utf-8"?>
<!-- Generator: Adobe Illustrator 22.0.0, SVG Export Plug-In . SVG Version: 6.00 Build 0)  -->
<svg version="1.1" id="Layer_1" xmlns="http://www.w3.org/2000/svg" xmlns:xlink="http://www.w3.org/1999/xlink" x="0px" y="0px"
	 viewBox="0 0 578.2 82.2" style="enable-background:new 0 0 578.2 82.2;" xml:space="preserve">
<g>
	<path d="M74.3,41.6c0,5.6-1,10.7-2.9,15.4c-1.9,4.7-4.6,8.8-8.1,12.2c-3.5,3.4-7.7,6.1-12.6,8c-4.9,1.9-10.4,2.9-16.4,2.9h-30V3h30
		c6,0,11.5,1,16.4,2.9c4.9,1.9,9.1,4.6,12.6,8c3.5,3.4,6.2,7.5,8.1,12.2C73.3,30.9,74.3,36,74.3,41.6z M56,41.6
		c0-3.8-0.5-7.3-1.5-10.3c-1-3.1-2.4-5.7-4.3-7.8c-1.9-2.1-4.1-3.8-6.8-4.9c-2.7-1.1-5.7-1.7-9.2-1.7h-12v49.6h12
		c3.4,0,6.5-0.6,9.2-1.7c2.7-1.1,4.9-2.8,6.8-4.9c1.9-2.1,3.3-4.7,4.3-7.8C55.5,48.9,56,45.4,56,41.6z"/>
	<path d="M200.7,18.7c-0.5,0.8-1.1,1.5-1.7,1.9c-0.6,0.4-1.3,0.6-2.3,0.6c-0.8,0-1.7-0.3-2.6-0.8c-0.9-0.5-2-1.1-3.2-1.7
		c-1.2-0.6-2.5-1.2-4.1-1.7c-1.5-0.5-3.2-0.8-5.2-0.8c-3.4,0-5.8,0.7-7.5,2.1c-1.6,1.4-2.5,3.4-2.5,5.8c0,1.6,0.5,2.8,1.5,3.9
		c1,1,2.3,1.9,3.9,2.6c1.6,0.7,3.4,1.4,5.5,2c2.1,0.6,4.2,1.3,6.3,2.1c2.2,0.8,4.3,1.7,6.3,2.7c2.1,1,3.9,2.3,5.5,3.9
		c1.6,1.6,2.9,3.5,3.9,5.8c1,2.3,1.5,5,1.5,8.2c0,3.6-0.6,6.9-1.9,10c-1.2,3.1-3,5.8-5.4,8.1c-2.3,2.3-5.2,4.1-8.7,5.5
		c-3.4,1.3-7.4,2-11.7,2c-2.4,0-4.8-0.2-7.3-0.7c-2.5-0.5-4.9-1.2-7.2-2.1c-2.3-0.9-4.5-2-6.6-3.2c-2-1.2-3.8-2.6-5.3-4.1l5.3-8.4
		c0.4-0.6,0.9-1.1,1.6-1.5c0.7-0.4,1.5-0.6,2.3-0.6c1.1,0,2.1,0.3,3.2,1c1.1,0.7,2.3,1.4,3.7,2.2c1.4,0.8,2.9,1.6,4.7,2.2
		c1.8,0.7,3.8,1,6.2,1c3.2,0,5.8-0.7,7.6-2.1c1.8-1.4,2.7-3.7,2.7-6.8c0-1.8-0.5-3.3-1.5-4.4c-1-1.1-2.3-2.1-3.9-2.8
		c-1.6-0.7-3.4-1.4-5.5-2c-2-0.6-4.1-1.2-6.3-1.9c-2.2-0.7-4.3-1.5-6.3-2.5c-2-1-3.9-2.3-5.5-4c-1.6-1.6-2.9-3.7-3.9-6.1
		c-1-2.5-1.5-5.5-1.5-9.1c0-2.9,0.6-5.7,1.7-8.5c1.2-2.8,2.9-5.2,5.1-7.4c2.3-2.2,5-3.9,8.3-5.2c3.3-1.3,7-1.9,11.3-1.9
		c2.4,0,4.7,0.2,6.9,0.6c2.2,0.4,4.4,0.9,6.4,1.6c2,0.7,3.9,1.6,5.6,2.6s3.3,2.1,4.7,3.4L200.7,18.7z"/>
	<path d="M271.1,3v14.2h-21.7v62.9h-17.9V17.2h-21.7V3H271.1z"/>
	<path d="M296.4,34.3h2.9c2.6,0,4.6-0.8,5.7-2.5l17.4-25.2c1-1.4,2-2.3,3.3-2.8c1.2-0.5,2.7-0.7,4.5-0.7h15.6l-22.9,31.2
		c-0.8,1.1-1.7,2.1-2.5,2.8c-0.9,0.7-1.8,1.4-2.7,1.9c1.3,0.5,2.6,1.2,3.7,2c1.1,0.9,2.1,2,3,3.5l23.3,35.8h-16
		c-1,0-1.9-0.1-2.6-0.2c-0.7-0.1-1.4-0.4-1.9-0.6c-0.5-0.3-1-0.6-1.4-1c-0.4-0.4-0.8-0.9-1.1-1.4L307.1,50c-0.6-1-1.4-1.7-2.4-2.1
		c-1-0.4-2.3-0.6-3.9-0.6h-4.3v32.8h-17.9V3h17.9V34.3z"/>
	<path d="M528.1,51.6v28.5h-17.9V3h25.1c5.6,0,10.3,0.6,14.3,1.7c3.9,1.1,7.1,2.7,9.6,4.8c2.5,2,4.3,4.5,5.4,7.3
		c1.1,2.8,1.7,5.8,1.7,9.1c0,2.5-0.3,4.9-1,7.1c-0.7,2.2-1.7,4.3-3,6.2c-1.3,1.9-2.9,3.6-4.9,5.1c-1.9,1.5-4.1,2.7-6.6,3.7
		c1.2,0.6,2.3,1.3,3.4,2.2c1,0.9,1.9,2,2.7,3.2l16.4,26.8h-16.2c-3,0-5.2-1.1-6.5-3.4l-12.8-22.4c-0.6-1-1.2-1.7-2-2.1
		c-0.8-0.4-1.8-0.6-3.2-0.6H528.1z M528.1,39.3h7.2c2.4,0,4.5-0.3,6.2-0.9c1.7-0.6,3.1-1.5,4.2-2.6c1.1-1.1,1.9-2.4,2.4-3.8
		c0.5-1.5,0.7-3,0.7-4.7c0-3.4-1.1-6-3.3-7.9c-2.2-1.9-5.6-2.9-10.2-2.9h-7.2V39.3z"/>
	<path d="M121.6,3h-18.3L73.4,80.2h14c1.5,0,2.7-0.4,3.8-1.2c1-0.8,1.7-1.7,2.1-2.7l4.1-12.1l0,0l0-0.1l0.4-1.2h0l5.4-15.9l5.8-17.3
		c0.5-1.3,1.1-2.9,1.7-4.8c0.6-1.8,1.2-3.8,1.7-6c0.6,2.1,1.2,4.1,1.8,5.9c0.6,1.8,1.2,3.4,1.6,4.7l6.2,18.3l0,0l5.9,17.5h0
		l3.7,10.9c0.4,1.1,1.1,2.1,2.1,2.8c1,0.7,2.3,1.1,3.8,1.1h13.9L121.6,3z"/>
	<path d="M396.1,3h-18.3l-29.9,77.1h14c1.5,0,2.7-0.4,3.8-1.2c1-0.8,1.7-1.7,2.1-2.7l3-8.9l8.7-25.7l4-12c0.5-1.3,1.1-2.9,1.7-4.8
		c0.6-1.8,1.2-3.8,1.7-6c0.6,2.1,1.2,4.1,1.8,5.9c0.6,1.8,1.2,3.4,1.6,4.7l5,14.8h0l7.9,23.4l0,0l2.9,8.5c0.4,1.1,1.1,2.1,2.1,2.8
		c1,0.7,2.3,1.1,3.8,1.1h13.9L396.1,3z"/>
	<path d="M474.1,3h-18.3l-29.9,77.1h14c1.5,0,2.7-0.4,3.8-1.2c1-0.8,1.7-1.7,2.1-2.7l3.8-11.3l0,0l9.2-27.1l2.8-8.3
		c0.5-1.3,1.1-2.9,1.7-4.8c0.6-1.8,1.2-3.8,1.7-6c0.6,2.1,1.2,4.1,1.8,5.9c0.6,1.8,1.2,3.4,1.6,4.7l2.8,8.4h0l10.2,30.2l2.8,8.1
		c0.4,1.1,1.1,2.1,2.1,2.8c1,0.7,2.3,1.1,3.8,1.1h13.9L474.1,3z"/>
</g>
</svg>
