<?xml version="1.0" encoding="UTF-8" standalone="yes"?>
<svg xmlns="http://www.w3.org/2000/svg" viewBox="0 0 128 128" width="256" height="256" fill="#000000">
  <path d="M 54.300781 11.199219 C 43.000781 11.199219 33.800781 20.399219 33.800781 31.699219 C 33.800781 36.299219 35.299219 40.700781 38.199219 44.300781 C 38.799219 45.100781 39.699609 45.400391 40.599609 45.400391 C 41.199609 45.400391 41.900391 45.200781 42.400391 44.800781 C 43.700391 43.800781 43.900391 41.899609 42.900391 40.599609 C 40.900391 37.999609 39.800781 34.899219 39.800781 31.699219 C 39.800781 23.699219 46.300781 17.199219 54.300781 17.199219 C 62.300781 17.199219 68.800781 23.699219 68.800781 31.699219 C 68.800781 34.999219 67.699219 37.999609 65.699219 40.599609 C 64.699219 41.899609 64.899609 43.699219 66.099609 44.699219 C 67.299609 45.699219 69.099219 45.6 70.199219 44.5 C 72.299219 42.2 75.199219 41 78.199219 41 C 84.299219 41 89.199219 45.9 89.199219 52 C 89.199219 56.7 86.200781 60.900391 81.800781 62.400391 C 80.300781 62.900391 79.500391 64.400391 79.900391 65.900391 C 80.300391 67.400391 81.699219 68.399219 83.199219 68.199219 C 83.799219 68.099219 84.799219 68 85.199219 68 C 91.299219 68 96.199219 72.9 96.199219 79 C 96.199219 81.8 95.199219 84.200391 93.199219 86.400391 C 82.999219 97.700391 64.499219 98.100781 57.199219 97.800781 C 55.699219 89.100781 54.599609 75.600781 55.599609 55.300781 L 60.800781 51.5 C 62.100781 50.5 62.400391 48.600781 61.400391 47.300781 C 60.400391 46.000781 58.499219 45.699219 57.199219 46.699219 L 56.099609 47.5 C 56.399609 43.8 56.699609 39.900781 57.099609 35.800781 C 57.299609 34.200781 56.100391 32.7 54.400391 32.5 C 52.800391 32.3 51.299609 33.499219 51.099609 35.199219 C 50.199609 44.799219 49.600391 53.300781 49.400391 60.800781 L 42.5 55.099609 C 41.2 54.099609 39.300781 54.2 38.300781 55.5 C 37.300781 56.8 37.399219 58.699219 38.699219 59.699219 L 48.5 67.699219 C 48.8 67.899219 49.000781 68.099219 49.300781 68.199219 C 49.000781 104.89922 56.299219 114.80078 56.699219 115.30078 C 57.299219 116.10078 58.199609 116.5 59.099609 116.5 C 59.699609 116.5 60.400391 116.30039 60.900391 115.90039 C 62.200391 114.90039 62.5 112.99922 61.5 111.69922 C 61.5 111.59922 59.999609 109.50078 58.599609 103.80078 L 61.199219 103.80078 C 83.099219 104.00078 93.899219 94.8 97.699219 90.5 C 100.79922 87.2 102.30078 83.399609 102.30078 79.099609 C 102.30078 71.799609 97.699219 65.599219 91.199219 63.199219 C 93.799219 60.199219 95.300781 56.299609 95.300781 52.099609 C 95.300781 42.699609 87.700781 35.099609 78.300781 35.099609 C 77.000781 35.099609 75.7 35.3 74.5 35.5 C 74.7 34.3 74.800781 32.999219 74.800781 31.699219 C 74.800781 20.399219 65.600781 11.199219 54.300781 11.199219 z M 89.121094 12.908203 C 84.986328 12.958008 80.900391 14.261719 77.400391 16.699219 C 76.100391 17.699219 75.699219 19.500391 76.699219 20.900391 C 77.699219 22.200391 79.500391 22.599609 80.900391 21.599609 C 84.800391 18.799609 89.900391 18.100781 94.400391 19.800781 C 101.90039 22.600781 105.70039 31 102.90039 38.5 C 102.00039 41 100.29922 43.200391 98.199219 44.900391 C 97.299219 45.600391 96.899609 46.599219 97.099609 47.699219 L 97.199219 48.099609 C 97.299219 48.999609 97.899609 49.799219 98.599609 50.199219 C 99.399609 50.699219 100.29961 50.8 101.09961 50.5 C 103.59961 49.6 106.19961 49.6 108.59961 50.5 C 111.39961 51.5 113.50078 53.599219 114.80078 56.199219 C 116.00078 58.899219 116.09961 61.899609 115.09961 64.599609 C 114.19961 66.999609 112.60078 68.999219 110.30078 70.199219 C 108.90078 70.999219 108.39922 72.900781 109.19922 74.300781 C 109.79922 75.300781 110.80078 75.800781 111.80078 75.800781 C 112.30078 75.800781 112.80078 75.700391 113.30078 75.400391 C 116.70078 73.400391 119.29922 70.299219 120.69922 66.699219 C 122.19922 62.599219 122.09922 58.000781 120.19922 53.800781 C 118.29922 49.700781 114.89922 46.500391 110.69922 44.900391 C 109.49922 44.400391 108.20039 44.1 106.90039 44 C 107.60039 42.9 108.1 41.799609 108.5 40.599609 C 112.5 29.999609 107.1 18.199219 96.5 14.199219 C 94.1 13.299219 91.601953 12.87832 89.121094 12.908203 z M 27.796875 35.351562 C 27.599414 35.34707 27.399219 35.362891 27.199219 35.400391 C 19.199219 36.900391 13.400391 43.899609 13.400391 52.099609 C 13.400391 56.299609 14.9 60.099219 17.5 63.199219 C 11 65.599219 6.4003906 71.799609 6.4003906 79.099609 C 6.3003906 83.399609 7.8003906 87.2 10.900391 90.5 C 17.400391 97.8 27.600781 102.29961 40.300781 103.59961 L 40.599609 103.59961 C 42.099609 103.59961 43.399609 102.50039 43.599609 100.90039 C 43.799609 99.300391 42.600391 97.799609 40.900391 97.599609 C 33.100391 96.799609 22.300391 94.2 15.400391 86.5 C 13.400391 84.3 12.400391 81.899609 12.400391 79.099609 C 12.400391 72.999609 17.300391 68.099609 23.400391 68.099609 C 23.800391 68.099609 24.900391 68.200781 25.400391 68.300781 C 26.900391 68.500781 28.399219 67.5 28.699219 66 C 29.099219 64.5 28.200781 63 26.800781 62.5 C 22.400781 61 19.400391 56.799609 19.400391 52.099609 C 19.400391 46.799609 23.200781 42.300781 28.300781 41.300781 C 29.900781 41.000781 30.999219 39.400781 30.699219 37.800781 C 30.436719 36.400781 29.179102 35.383008 27.796875 35.351562 z M 71.974609 69.195312 C 71.405664 69.168359 70.825781 69.299609 70.300781 69.599609 L 59.900391 76 C 58.500391 76.9 58.100391 78.699609 58.900391 80.099609 C 59.500391 80.999609 60.4 81.5 61.5 81.5 C 62 81.5 62.599609 81.399609 63.099609 81.099609 L 73.400391 74.699219 C 74.800391 73.799219 75.200391 71.999609 74.400391 70.599609 C 73.837891 69.724609 72.922852 69.240234 71.974609 69.195312 z M 114.35938 79.712891 C 113.96875 79.731641 113.57422 79.825 113.19922 80 C 111.69922 80.7 111.10078 82.5 111.80078 84 C 113.10078 86.7 113.19922 89.7 112.19922 92.5 C 111.19922 95.1 109.49922 97.000391 106.69922 98.400391 C 101.29922 101.20039 94.800391 102.20039 87.400391 101.40039 C 85.800391 101.20039 84.299609 102.39961 84.099609 104.09961 C 83.799609 105.69961 84.999219 107.20078 86.699219 107.30078 C 88.499219 107.50078 90.299609 107.59961 92.099609 107.59961 C 98.599609 107.59961 104.40039 106.29922 109.40039 103.69922 C 113.40039 101.69922 116.19922 98.599609 117.69922 94.599609 C 119.29922 90.299609 119.09922 85.600391 117.19922 81.400391 C 116.67422 80.275391 115.53125 79.656641 114.35938 79.712891 z"/>
</svg>
