<?xml version="1.0" encoding="UTF-8" standalone="yes"?>
<svg xmlns="http://www.w3.org/2000/svg" viewBox="0 0 64 64" width="256" height="256" fill="#000000">
  <path d="M 6 10 C 3.243 10 1 12.243 1 15 L 1 49 C 1 51.757 3.243 54 6 54 L 58 54 C 60.757 54 63 51.757 63 49 L 63 15 C 63 12.243 60.757 10 58 10 L 6 10 z M 6 12 L 58 12 C 59.654 12 61 13.346 61 15 L 61 49 C 61 50.654 59.654 52 58 52 L 6 52 C 4.346 52 3 50.654 3 49 L 3 15 C 3 13.346 4.346 12 6 12 z M 7 14 C 6.447 14 6 14.448 6 15 L 6 17 C 6 17.552 6.447 18 7 18 C 7.553 18 8 17.552 8 17 L 8 15 C 8 14.448 7.553 14 7 14 z M 12 14 C 11.447 14 11 14.448 11 15 L 11 17 C 11 17.552 11.447 18 12 18 C 12.553 18 13 17.552 13 17 L 13 15 C 13 14.448 12.553 14 12 14 z M 17 14 C 16.447 14 16 14.448 16 15 L 16 17 C 16 17.552 16.447 18 17 18 C 17.553 18 18 17.552 18 17 L 18 15 C 18 14.448 17.553 14 17 14 z M 22 14 C 21.447 14 21 14.448 21 15 L 21 17 C 21 17.552 21.447 18 22 18 C 22.553 18 23 17.552 23 17 L 23 15 C 23 14.448 22.553 14 22 14 z M 27 14 C 26.447 14 26 14.448 26 15 L 26 17 C 26 17.552 26.447 18 27 18 C 27.553 18 28 17.552 28 17 L 28 15 C 28 14.448 27.553 14 27 14 z M 32 14 C 31.447 14 31 14.448 31 15 L 31 17 C 31 17.552 31.447 18 32 18 C 32.553 18 33 17.552 33 17 L 33 15 C 33 14.448 32.553 14 32 14 z M 37 14 C 36.447 14 36 14.448 36 15 L 36 17 C 36 17.552 36.447 18 37 18 C 37.553 18 38 17.552 38 17 L 38 15 C 38 14.448 37.553 14 37 14 z M 42 14 C 41.447 14 41 14.448 41 15 L 41 17 C 41 17.552 41.447 18 42 18 C 42.553 18 43 17.552 43 17 L 43 15 C 43 14.448 42.553 14 42 14 z M 47 14 C 46.447 14 46 14.448 46 15 L 46 17 C 46 17.552 46.447 18 47 18 C 47.553 18 48 17.552 48 17 L 48 15 C 48 14.448 47.553 14 47 14 z M 52 14 C 51.447 14 51 14.448 51 15 L 51 17 C 51 17.552 51.447 18 52 18 C 52.553 18 53 17.552 53 17 L 53 15 C 53 14.448 52.553 14 52 14 z M 57 14 C 56.447 14 56 14.448 56 15 L 56 17 C 56 17.552 56.447 18 57 18 C 57.553 18 58 17.552 58 17 L 58 15 C 58 14.448 57.553 14 57 14 z M 32.208984 20.013672 C 31.956359 19.973172 31.688344 20.027953 31.464844 20.189453 C 31.378844 20.251453 31.303234 20.328063 31.240234 20.414062 L 29.769531 22.414062 L 27.410156 21.654297 C 26.885156 21.482297 26.320437 21.767969 26.148438 22.292969 C 26.110437 22.408969 26.092609 22.532297 26.099609 22.654297 L 26.099609 25.164062 L 23.75 25.953125 C 23.225 26.123125 22.937422 26.688844 23.107422 27.214844 C 23.140422 27.314844 23.188 27.409141 23.25 27.494141 L 24.341797 29 L 24.332031 29 L 24.695312 29.5 L 24.332031 30 L 24.341797 30 L 23.25 31.505859 C 23.188 31.590859 23.140422 31.685156 23.107422 31.785156 C 23.045422 31.976156 23.060375 32.168609 23.109375 32.349609 L 18.210938 38.650391 C 18.000937 38.920391 17.941641 39.278609 18.056641 39.599609 C 18.171641 39.921609 18.442391 40.163234 18.775391 40.240234 L 22.414062 41.076172 L 24.046875 44.435547 C 24.196875 44.746547 24.497797 44.957141 24.841797 44.994141 C 24.875797 44.998141 24.909359 45 24.943359 45 C 25.250359 45 25.542422 44.858281 25.732422 44.613281 L 30.841797 38.044922 L 31.238281 38.585938 C 31.300281 38.671937 31.376891 38.747547 31.462891 38.810547 C 31.909891 39.134547 32.536375 39.033937 32.859375 38.585938 L 33.207031 38.111328 L 38.265625 44.613281 C 38.456625 44.858281 38.747688 45 39.054688 45 C 39.088687 45 39.123203 44.998141 39.158203 44.994141 C 39.502203 44.958141 39.803125 44.746547 39.953125 44.435547 L 41.583984 41.076172 L 45.224609 40.240234 C 45.557609 40.164234 45.828359 39.922609 45.943359 39.599609 C 46.057359 39.278609 45.999062 38.920391 45.789062 38.650391 L 40.970703 32.453125 C 40.977703 32.435125 40.994 32.42425 41 32.40625 C 41.119 32.07125 41.050312 31.696781 40.820312 31.425781 L 39.423828 29.5 L 40.820312 27.574219 C 41.050312 27.303219 41.119 26.92875 41 26.59375 C 40.901 26.29075 40.662375 26.052125 40.359375 25.953125 L 38 25.164062 L 38 22.654297 C 38.027 22.102297 37.601781 21.632469 37.050781 21.605469 C 36.928781 21.599469 36.805453 21.616297 36.689453 21.654297 L 34.330078 22.414062 L 32.859375 20.414062 C 32.697375 20.190562 32.461609 20.054172 32.208984 20.013672 z M 32 22.744141 L 33.080078 24.234375 C 33.333078 24.588375 33.785219 24.736516 34.199219 24.603516 L 35.949219 24.033203 L 35.949219 25.894531 C 35.949219 26.327531 36.229625 26.70975 36.640625 26.84375 L 38.390625 27.433594 L 37.310547 28.953125 C 37.300547 28.968125 37.296109 28.985 37.287109 29 L 37.261719 29 C 37.193719 29.126 37.161438 29.262391 37.148438 29.400391 C 37.144438 29.433391 37.139672 29.467 37.138672 29.5 C 37.138672 29.533 37.144438 29.566609 37.148438 29.599609 C 37.161437 29.737609 37.192719 29.874 37.261719 30 L 37.287109 30 C 37.296109 30.015 37.300547 30.032875 37.310547 30.046875 L 38.390625 31.566406 L 36.640625 32.15625 C 36.229625 32.29025 35.949219 32.672469 35.949219 33.105469 L 35.949219 34.966797 L 34.199219 34.396484 C 33.785219 34.263484 33.333078 34.411625 33.080078 34.765625 L 32 36.255859 L 30.900391 34.775391 C 30.647391 34.421391 30.193297 34.27325 29.779297 34.40625 L 28.039062 34.966797 L 28.039062 33.105469 C 28.039062 32.672469 27.760609 32.29025 27.349609 32.15625 L 25.599609 31.566406 L 26.679688 30.046875 C 26.689688 30.031875 26.693125 30.015 26.703125 30 L 26.736328 30 C 26.805328 29.87 26.837656 29.727938 26.847656 29.585938 C 26.850656 29.556938 26.854469 29.529 26.855469 29.5 C 26.855469 29.471 26.850656 29.443063 26.847656 29.414062 C 26.837656 29.271062 26.806328 29.13 26.736328 29 L 26.703125 29 C 26.694125 28.985 26.690687 28.967125 26.679688 28.953125 L 25.599609 27.433594 L 27.349609 26.84375 C 27.760609 26.70975 28.039063 26.327531 28.039062 25.894531 L 28.039062 24.033203 L 29.779297 24.59375 C 30.193297 24.72675 30.647391 24.578609 30.900391 24.224609 L 32 22.744141 z M 7 28 C 6.448 28 6 28.448 6 29 C 6 29.552 6.448 30 7 30 L 11 30 C 11.552 30 12 29.552 12 29 C 12 28.448 11.552 28 11 28 L 7 28 z M 15 28 C 14.448 28 14 28.448 14 29 C 14 29.552 14.448 30 15 30 L 18 30 C 18.552 30 19 29.552 19 29 C 19 28.448 18.552 28 18 28 L 15 28 z M 46 28 C 45.448 28 45 28.448 45 29 C 45 29.552 45.448 30 46 30 L 49 30 C 49.552 30 50 29.552 50 29 C 50 28.448 49.552 28 49 28 L 46 28 z M 53 28 C 52.448 28 52 28.448 52 29 C 52 29.552 52.448 30 53 30 L 57 30 C 57.552 30 58 29.552 58 29 C 58 28.448 57.552 28 57 28 L 53 28 z M 9 32 C 8.448 32 8 32.448 8 33 C 8 33.552 8.448 34 9 34 L 16 34 C 16.552 34 17 33.552 17 33 C 17 32.448 16.552 32 16 32 L 9 32 z M 48 32 C 47.448 32 47 32.448 47 33 C 47 33.552 47.448 34 48 34 L 55 34 C 55.552 34 56 33.552 56 33 C 56 32.448 55.552 32 55 32 L 48 32 z M 24.820312 33.40625 L 26.099609 33.835938 L 26.099609 36.345703 C 26.093609 36.467703 26.110438 36.591031 26.148438 36.707031 C 26.320438 37.232031 26.885156 37.517703 27.410156 37.345703 L 29.332031 36.726562 L 25.142578 42.117188 L 24.003906 39.771484 C 23.871906 39.499484 23.623125 39.301375 23.328125 39.234375 L 20.751953 38.640625 L 24.820312 33.40625 z M 39.199219 33.433594 L 43.246094 38.640625 L 40.669922 39.234375 C 40.374922 39.301375 40.126141 39.499484 39.994141 39.771484 L 38.855469 42.115234 L 34.632812 36.683594 L 36.689453 37.345703 C 36.805453 37.383703 36.928781 37.401531 37.050781 37.394531 C 37.602781 37.367531 38.026047 36.896703 37.998047 36.345703 L 37.998047 33.835938 L 39.199219 33.433594 z M 7 46 C 6.447 46 6 46.448 6 47 L 6 49 C 6 49.552 6.447 50 7 50 C 7.553 50 8 49.552 8 49 L 8 47 C 8 46.448 7.553 46 7 46 z M 12 46 C 11.447 46 11 46.448 11 47 L 11 49 C 11 49.552 11.447 50 12 50 C 12.553 50 13 49.552 13 49 L 13 47 C 13 46.448 12.553 46 12 46 z M 17 46 C 16.447 46 16 46.448 16 47 L 16 49 C 16 49.552 16.447 50 17 50 C 17.553 50 18 49.552 18 49 L 18 47 C 18 46.448 17.553 46 17 46 z M 22 46 C 21.447 46 21 46.448 21 47 L 21 49 C 21 49.552 21.447 50 22 50 C 22.553 50 23 49.552 23 49 L 23 47 C 23 46.448 22.553 46 22 46 z M 27 46 C 26.447 46 26 46.448 26 47 L 26 49 C 26 49.552 26.447 50 27 50 C 27.553 50 28 49.552 28 49 L 28 47 C 28 46.448 27.553 46 27 46 z M 32 46 C 31.447 46 31 46.448 31 47 L 31 49 C 31 49.552 31.447 50 32 50 C 32.553 50 33 49.552 33 49 L 33 47 C 33 46.448 32.553 46 32 46 z M 37 46 C 36.447 46 36 46.448 36 47 L 36 49 C 36 49.552 36.447 50 37 50 C 37.553 50 38 49.552 38 49 L 38 47 C 38 46.448 37.553 46 37 46 z M 42 46 C 41.447 46 41 46.448 41 47 L 41 49 C 41 49.552 41.447 50 42 50 C 42.553 50 43 49.552 43 49 L 43 47 C 43 46.448 42.553 46 42 46 z M 47 46 C 46.447 46 46 46.448 46 47 L 46 49 C 46 49.552 46.447 50 47 50 C 47.553 50 48 49.552 48 49 L 48 47 C 48 46.448 47.553 46 47 46 z M 52 46 C 51.447 46 51 46.448 51 47 L 51 49 C 51 49.552 51.447 50 52 50 C 52.553 50 53 49.552 53 49 L 53 47 C 53 46.448 52.553 46 52 46 z M 57 46 C 56.447 46 56 46.448 56 47 L 56 49 C 56 49.552 56.447 50 57 50 C 57.553 50 58 49.552 58 49 L 58 47 C 58 46.448 57.553 46 57 46 z"/>
</svg>
