<?xml version="1.0" encoding="utf-8"?>
<!-- Generator: Adobe Illustrator 22.0.0, SVG Export Plug-In . SVG Version: 6.00 Build 0)  -->
<svg version="1.1" id="Layer_1" xmlns="http://www.w3.org/2000/svg" xmlns:xlink="http://www.w3.org/1999/xlink" x="0px" y="0px"
	 viewBox="0 0 595.3 841.9" style="enable-background:new 0 0 595.3 841.9;" xml:space="preserve">
<g>
	<path d="M488.4,329.4c-11.4-28-27.5-52.1-48.3-72.5c-20.8-20.3-45.8-36.3-75-47.8c-29.2-11.5-61.7-17.3-97.3-17.3h-178V650h106.9
		v-81.8v-25.2V273.6h71.1c20.3,0,38.5,3.4,54.4,10.2c15.9,6.8,29.4,16.6,40.4,29.2c11,12.7,19.4,28.1,25.3,46.4
		c5.9,18.2,8.8,38.7,8.8,61.3c0,22.9-2.9,43.4-8.8,61.6c-5.9,18.2-14.3,33.7-25.3,46.4c-11,12.7-24.5,22.4-40.4,29.2
		c-5.9,2.5-12.1,4.6-18.6,6.1V648c21.9-2.6,42.4-7.6,61.5-15.1c29.2-11.4,54.2-27.4,75-47.8c20.8-20.4,36.8-44.7,48.3-72.6
		c11.4-28,17.1-58.5,17.1-91.7C505.5,387.9,499.8,357.4,488.4,329.4z"/>
	<circle cx="247.6" cy="610.2" r="39.8"/>
</g>
</svg>
